<svg xmlns="http://www.w3.org/2000/svg" xmlns:xlink="http://www.w3.org/1999/xlink" id="Layer_1" x="0px" y="0px" viewBox="0 0 500 512" style="enable-background:new 0 0 500 512;" xml:space="preserve"><g>	<path d="M1.8,105.5c2.4-5.4,6.6-7.4,12.4-7.2c8.4,0.3,16.8-0.1,25.2,0.2c4.3,0.2,6-0.8,5.8-5.5c-0.4-8.4-0.2-16.8-0.1-25.2  c0.1-8.8,4.8-12.7,13.4-10.9C121,70.4,183.4,83.8,245.9,97.2c2.6,0.6,5.5,0.5,8.1,0C316.4,83.9,378.8,70.4,441.3,57  c8.9-1.9,13.5,1.9,13.6,11.1c0.1,8.6,0.2,17.1-0.1,25.7c-0.1,3.5,0.9,4.8,4.6,4.7c9-0.2,18.1-0.1,27.1-0.1  c8.3,0.1,11.6,3.5,11.6,11.9c0,111,0,222,0,332.9c0,8.6-3.5,12.1-12,12.1c-157.5,0-315,0-472.5,0.1c-5.5,0-9.1-2.3-11.9-6.7  C1.8,334.4,1.8,220,1.8,105.5z M478.5,435.8c0-106,0-211.7,0-317.5c-7.9,0-15.6,0-23.6,0c0,2.3,0,4.2,0,6.2c0,27.5,0,54.9,0,82.4  c0,1.9,0,3.9-0.2,5.8c-0.6,4.6-4.3,7.9-8.9,8.1c-4.4,0.3-8.7-2.7-9.7-7.1c-0.5-2.2-0.6-4.5-0.6-6.7c0-40.9,0-81.8,0-122.6  c0-1.9,0-3.8,0-5.9c-1.4,0.1-2.2,0.1-2.9,0.2c-55.8,12-111.7,24.1-167.5,36c-4.3,0.9-5.6,2.4-5.6,6.9  c0.2,102.1,0.2,204.2,0.3,306.4c0,1.7,0,3.5,0,5.4c1.4-0.1,2.4-0.1,3.3-0.3c56-12.1,112-24.3,168-36.2c3.7-0.8,4.6-2.2,4.6-5.7  c-0.1-29.6-0.1-59.1,0-88.7c0-2.2,0.1-4.6,0.6-6.7c1.1-4.5,5.2-7.2,9.8-6.9c4.6,0.3,8.1,3.6,8.8,8.2c0.2,1.6,0.2,3.2,0.2,4.8  c0,32.8,0,65.6,0,98.4c0,9.2-2,11.7-10.9,13.6c-25.9,5.6-51.7,11.1-77.6,16.7c-7.2,1.5-14.3,3.2-21.4,4.8c0.1,0.2,0.1,0.3,0.2,0.5  C389.5,435.8,433.9,435.8,478.5,435.8z M240.1,433.5c0.1-1.4,0.2-2.2,0.2-3c0-103.6-0.1-207.2-0.1-310.7c0-3.1-1-4.1-3.9-4.7  C187,104.5,137.8,93.9,88.6,83.2c-7.8-1.7-15.7-3.4-23.8-5.1c-0.1,1.9-0.3,3.1-0.3,4.4c0,102.9,0,205.9-0.1,308.8  c0,3.3,0.8,4.6,4.3,5.4c41.2,8.7,82.3,17.7,123.5,26.6C208,426.7,223.8,430,240.1,433.5z M155.2,435.9c0-0.2,0.1-0.3,0.1-0.5  c-1.2-0.4-2.3-0.8-3.5-1.1c-31.5-6.8-63.1-13.6-94.6-20.4c-10.3-2.2-12.1-4.1-12.1-14.6c0-91.6,0-183.2,0-274.9c0-2.1,0-4.1,0-6.3  c-8.2,0-15.9,0-23.5,0c0,106.1,0,211.8,0,317.7C66.4,435.9,110.8,435.9,155.2,435.9z"></path>	<path d="M412.3,291.8c0,15,0,30,0,45c0,9-1.9,11.4-10.6,13.3c-34.7,7.5-69.3,15-104,22.5c-7.9,1.7-13.1-2.3-13.1-10.3  c-0.1-31.6-0.1-63.3,0-94.9c0-6.2,2.5-9.3,8.4-10.6c35.3-7.7,70.6-15.4,105.9-22.9c8.6-1.8,13.3,2.2,13.4,11.1  C412.4,260.5,412.3,276.1,412.3,291.8z M304.3,350.9c1.4-0.1,2.6-0.1,3.7-0.3c27-5.8,53.9-11.6,80.9-17.4c3-0.6,4.1-1.9,4.1-5.1  c-0.2-22.9-0.1-45.9-0.1-68.8c0-1.3-0.2-2.5-0.3-4.1c-2,0.4-3.7,0.6-5.4,1c-26.2,5.7-52.3,11.4-78.5,16.9c-3.5,0.7-4.7,1.9-4.7,5.6  c0.2,22.6,0.1,45.2,0.1,67.9C304,347.9,304.2,349.3,304.3,350.9z"></path>	<path d="M294.7,178.8c-5.1,0-9.2-3.3-9.9-7.9c-0.8-5.2,1.8-9.8,7.1-11c11.4-2.7,23-5.1,34.4-7.6c23.5-5.1,46.9-10.1,70.4-15.2  c8.6-1.9,13.9,0.3,15.2,6.4c1.4,6.6-2.2,10.6-11.2,12.6c-33.9,7.3-67.7,14.7-101.6,22C297.6,178.4,296,178.5,294.7,178.8z"></path>	<path d="M294.7,227.4c-5,0.1-9.3-3.5-10-8.2c-0.7-5.2,2.1-9.6,7.4-10.8c12.9-3,25.8-5.7,38.7-8.5c22.4-4.8,44.7-9.7,67.1-14.5  c7-1.5,12,0.5,13.7,5.6c2.2,6.1-1.4,11.6-8.9,13.3c-16.2,3.6-32.4,7-48.7,10.5c-18.3,3.9-36.5,7.9-54.8,11.8  C297.8,226.9,296.2,227.1,294.7,227.4z"></path>	<path d="M454.8,254.6c0,5.3-4.1,9.6-9.4,9.7c-5.3,0.1-9.9-4.6-9.8-9.9c0.1-5.3,4.4-9.4,9.7-9.3  C450.7,245.1,454.8,249.2,454.8,254.6z"></path>	<path d="M216.4,193.6c0,7.4,0.1,14.9,0,22.3c-0.1,8.6-4.8,12.6-13.1,10.9c-35.3-7.5-70.6-15.1-105.9-22.8c-6.2-1.3-8.6-4.5-8.7-11  c-0.1-15-0.1-30,0-45.1c0-9.5,4.7-13.2,14-11.2c31.9,6.8,63.7,13.7,95.5,20.6c3.3,0.7,6.6,1.4,9.9,2.2c5.7,1.5,8.1,4.4,8.2,10.3  C216.5,177.8,216.4,185.7,216.4,193.6z M197,205.6c0-9.2,0.1-17.7-0.2-26.2c0-1.1-2.2-2.9-3.6-3.2c-17.5-4-35-7.7-52.5-11.5  c-10.7-2.3-21.3-4.5-32.5-6.9c0,9.3-0.1,17.9,0.1,26.6c0,0.9,1.6,2.3,2.7,2.5C139.3,193.2,167.7,199.3,197,205.6z"></path>	<path d="M99.6,233.3c5.7,1.2,12.6,2.6,19.5,4.1c29.1,6.3,58.3,12.6,87.4,18.8c4,0.8,8,2.2,8.9,6.4c0.6,3,0.1,6.8-1.3,9.5  c-1.9,3.5-5.7,4.4-9.7,3.6c-19.2-4.1-38.4-8.3-57.7-12.4c-16.2-3.5-32.4-7-48.7-10.5c-7.3-1.6-11.1-7.2-8.7-13.3  C90.9,235.5,93.9,233.4,99.6,233.3z"></path>	<path d="M99.6,281.9c6.2,1.3,13.5,2.7,20.7,4.3c28.2,6.1,56.4,12.2,84.6,18.3c1.1,0.2,2.2,0.5,3.3,0.8c6.1,1.6,9.1,6.2,7.9,11.8  c-1.1,5.3-6.3,8.3-12.4,7c-31.4-6.7-62.7-13.5-94-20.3c-4.7-1-9.5-1.8-14.1-3.2c-5.1-1.5-7.4-5.8-6.6-10.9  C89.7,285,93.6,281.9,99.6,281.9z"></path>	<path d="M216.3,363.7c-0.1,6.4-5.7,10.5-12.5,9c-17.7-3.7-35.3-7.6-52.9-11.4c-17.6-3.8-35.3-7.7-52.9-11.4c-4.4-0.9-7.9-3-8.9-7.7  c-0.8-4,0-7.8,3.6-9.7c2.6-1.4,6.3-2.1,9.1-1.5c35.2,7.4,70.3,15,105.4,22.7C213.5,355,216.4,358.4,216.3,363.7z"></path></g></svg>