<svg xmlns="http://www.w3.org/2000/svg" xmlns:xlink="http://www.w3.org/1999/xlink" id="Layer_1" x="0px" y="0px" viewBox="0 0 500 500" style="enable-background:new 0 0 500 500;" xml:space="preserve"><g>	<path d="M23,402.5c0-102,0-204,0-305.9c6.9-18,14.2-23.1,33.5-23.1c33.1,0,66.2,0.1,99.3,0c11.9,0,21,4.4,27.8,14.2  c8.2,11.9,16.9,23.5,25.2,35.4c1.9,2.7,3.8,3.7,7.2,3.7c53-0.1,106.1-0.1,159.1-0.1c18.8,0,30.1,11.4,30.2,30c0,18,0,36,0,54.1  c0,1.5,0,3.1,0,4.9c11.1,0,21.4,0,31.7,0c12.8,0,24.1,3.8,31.9,14.3c3.6,4.8,5.5,10.9,8.1,16.4c0,3.5,0,7.1,0,10.6  c-1.3,3.6-2.2,7.4-3.8,10.7c-24.7,49.8-49.5,99.6-74.3,149.3c-2.8,5.7-7.4,8.5-13.9,8.4c-6.2-0.1-12.4,0-18.6,0  c-103.7,0-207.3,0.1-311-0.1c-5.6,0-11.5-1.2-16.7-3.3C29.9,418.7,25.8,411,23,402.5z M57.5,398.7c1.3,0.1,2.2,0.2,3,0.2  c104.8,0,209.6,0,314.3,0.1c2.6,0,3.9-0.9,5-3.2c7.3-15,14.8-29.9,22.2-44.8c15.5-31,30.9-62.1,46.4-93.1c4-8.1,0.6-14.3-8.4-15.4  c-1.2-0.1-2.4-0.2-3.5-0.2c-98.6,0-197.1,0-295.7-0.1c-7.2,0-11.8,2.7-14.9,9.4c-22,47.5-44.3,95-66.4,142.4  C58.8,395.5,58.2,397,57.5,398.7z M49.9,100.1c0,83.8,0,166.9,0,251.3c1.2-2.3,1.8-3.6,2.4-4.9c16.6-35.4,33-70.9,49.8-106.2  c2.2-4.6,5-9.1,8.4-12.9c8.2-9,19.1-11.7,30.9-11.7c77,0.1,154,0,231,0c2,0,4,0,5.8,0c0-21.2,0-41.6,0-62.4c-2.1,0-3.9,0-5.6,0  c-52.6,0-105.2-0.1-157.8,0.1c-11.6,0-20.4-4.4-27-14c-8.2-11.9-16.9-23.5-25.1-35.4c-2-2.8-4.1-4-7.6-4  c-33.4,0.1-66.8,0.1-100.2,0.1C53.4,100.1,51.9,100.1,49.9,100.1z"></path></g></svg>