<svg xmlns="http://www.w3.org/2000/svg" xmlns:xlink="http://www.w3.org/1999/xlink" id="Layer_1" x="0px" y="0px" viewBox="0 0 500 500" style="enable-background:new 0 0 500 500;" xml:space="preserve"><style type="text/css">	.st0{display:none;}	.st1{display:inline;}	.st2{fill:#1C1927;}	.st3{font-family:'Arvo-Bold';}	.st4{font-size:83.9288px;}	.st5{fill:url(#SVGID_1_);}	.st6{opacity:0.15;fill:#FFFFFF;enable-background:new    ;}</style><circle cx="250" cy="250" r="239.9"></circle><g id="Layer_2_00000109750722984208198710000011750130732791172779_" class="st0">	<g class="st1">		<path class="st2" d="M-72.8,128c-10.3-24.3-25.1-45.9-44.3-64.7c-18.7-18.5-40-32.7-63.7-42.6s-48.4-14.8-74-14.8   c-16.2,0-31.7,1.7-46.4,4.9c15.9,1.6,31.3,5.3,45.9,11.3c20.1,8.2,37.7,20.6,52.8,37.2h36.2v62.1H-231   c-9.6-18.1-21.9-31.3-36.7-39.8c-14.8-8.4-32-12.7-51.5-12.7c-14.9,0-28.9,3.3-42,9.8s-24.5,15.8-34.2,27.9   c-9.8,12-17.5,26.7-23.1,43.9c-5.6,17.3-8.4,36.5-8.4,57.7c0,21,2.8,39.9,8.4,56.8s13.4,31.3,23.2,43.2   c9.9,11.9,21.3,21.1,34.2,27.5c13,6.4,26.9,9.6,41.8,9.6c22,0,41.2-5.6,57.5-16.9c16.3-11.2,29.3-27.6,38.9-49.3l53,27.4   c-6.9,15.5-15.4,29.3-25.5,41.6s-21.5,22.8-34.3,31.5c-12.7,8.7-26.7,15.4-42,20.1c-6,1.8-12.1,3.2-18.3,4.3   c11.1,1.8,22.6,2.7,34.4,2.7c26.8,0,52.6-5.3,77.2-15.8s46.3-25.5,65-45.1c18-18.9,31.8-40.5,41.4-64.9s14.4-50.1,14.4-77.1   C-57.3,177.5-62.4,152.2-72.8,128z"></path>		<g>			<text transform="matrix(0.9 0 0 1 -494.2568 506.8027)" class="st2 st3 st4">[cozuna.com]</text>		</g>	</g></g><g id="Layer_4"></g><linearGradient id="SVGID_1_" gradientUnits="userSpaceOnUse" x1="35.65" y1="-278" x2="464.35" y2="-278" gradientTransform="matrix(1 0 0 -1 0 -28)">	<stop offset="0" style="stop-color:#FBED21"></stop>	<stop offset="0.9994" style="stop-color:#F4D909"></stop></linearGradient><path class="st5" d="M254.5,283.6l-8.4-7.6l0.1-0.1l-72.1-65.7l-0.5-0.6c-8.3-9.7-20.2-15.2-32.9-15.2c-23.8,0-43.2,19.4-43.2,43.2 s19.4,43.2,43.2,43.2c16.9,0,32.4-10,39.4-25.5l6.9-15.2l48.4,44.1l-5.3,8.6c-19.3,31.2-52.8,49.9-89.4,49.9 c-57.9,0-105.1-47.1-105.1-105.1s47.2-105.1,105.2-105.1c29.4,0,57.7,12.5,77.6,34.3l39.1,35.7v-0.4l67.6,61.8l0.6,0.7 c0.2,0.3,0.5,0.6,0.7,0.9l8.1,7.4c0.3,0.2,1.1,0.7,1.1,0.7l0.7,0.4c6.9,4.4,14.9,6.7,23,6.7c23.8,0,43.2-19.4,43.2-43.2 s-19.4-43.2-43.2-43.2c-16.8,0-32.2,9.9-39.3,25.3l-6.9,15.1l-48.3-44.1l5.3-8.5c19.4-31,52.7-49.5,89.1-49.5 c57.9,0,105.1,47.1,105.1,105.1s-47.1,105.1-105.1,105.1c-15,0-29.5-3.1-42.9-9.1v27.1l-61.9,6.6L254.5,283.6L254.5,283.6z"></path><path class="st6" d="M264.4,280l-83-75.6l-0.5-0.5c-10.1-11.6-24.6-18.2-39.9-18.2c-29.2-0.1-52.9,23.6-52.9,52.8 s23.7,52.9,52.9,52.9c16.9,0,33-8.2,42.9-22l7.9-11l31.8,28.9l-6.7,8.8c-18.2,24-45.9,37.8-76,37.8c-52.6,0-95.4-42.8-95.4-95.4 s42.8-95.4,95.4-95.4c26.9,0,52.6,11.5,70.7,31.5l53.4,48.8V223l53,48.4l0.5,0.7c0.3,0.3,0.6,0.7,0.9,1l8.9,8.2 c0.4,0.3,0.7,0.5,1.1,0.8l0.7,0.5l1.4,1.2l5.4,2.5c7.1,3.3,14.6,5,22.4,5c29.2,0,52.9-23.7,52.9-52.9s-23.7-52.9-52.9-52.9 c-16.8,0-32.8,8.2-42.8,21.8l-8,10.9l-31.7-29l6.7-8.8c18.2-23.8,45.8-37.5,75.7-37.5c52.6,0,95.4,42.8,95.4,95.4 s-42.8,95.4-95.4,95.4c-18.9,0-36.9-5.5-52.6-15.8v34.7l-42.5,4.6V280H264.4z"></path></svg>